<svg xmlns="http://www.w3.org/2000/svg" width="360" height="345" viewBox="0 0 360 345" role="img" aria-labelledby="title desc">
<title id="title">Solved problems by difficulty</title>
<desc id="desc">8 easy, 7 medium, 1 hard. Open the LeetCode profile.</desc>
<defs>
<linearGradient id="accent" x1="0" x2="1"><stop stop-color="#ff2e88"/><stop offset="1" stop-color="#8b5cf6"/></linearGradient>
<clipPath id="bar"><rect x="32" y="82" width="296" height="8" rx="4"/></clipPath>
<style>
.heading{font:600 22px -apple-system,BlinkMacSystemFont,'Segoe UI',sans-serif;fill:#ff4b91}
.eyebrow{font:600 10px -apple-system,BlinkMacSystemFont,'Segoe UI',sans-serif;letter-spacing:1.2px;fill:#8b949e}
.total{font:700 52px -apple-system,BlinkMacSystemFont,'Segoe UI',sans-serif;fill:#f0f6fc}
.metric{font:600 15px -apple-system,BlinkMacSystemFont,'Segoe UI',sans-serif;fill:#f0f6fc}
.count{font:700 16px -apple-system,BlinkMacSystemFont,'Segoe UI',sans-serif;fill:#f0f6fc}
.muted{font:500 13px -apple-system,BlinkMacSystemFont,'Segoe UI',sans-serif;fill:#8b949e}
.language{font:700 31px -apple-system,BlinkMacSystemFont,'Segoe UI',sans-serif;fill:#f0f6fc}
.link{font:600 14px -apple-system,BlinkMacSystemFont,'Segoe UI',sans-serif;fill:#58a6ff}
</style>
</defs>
<rect x="1" y="1" width="358" height="343" rx="12" fill="#141321" stroke="#30363d"/>
<rect x="1" y="1" width="358" height="4" rx="2" fill="url(#accent)"/>
<text x="32" y="45" class="heading">Difficulty</text>
<path d="M 112 166 L 112.00 98.00 A 68 68 0 0 1 112.00 234.00 Z" fill="#00b8a3"/><path d="M 112 166 L 112.00 234.00 A 68 68 0 0 1 85.98 103.18 Z" fill="#ffc01e"/><path d="M 112 166 L 85.98 103.18 A 68 68 0 0 1 112.00 98.00 Z" fill="#ef4743"/>
<circle cx="112" cy="166" r="34" fill="#141321"/>
<circle cx="216" cy="121" r="7" fill="#00b8a3"/><text x="232" y="126" class="metric">Easy</text><text x="328" y="126" class="count" text-anchor="end">50%</text>
<circle cx="216" cy="163" r="7" fill="#ffc01e"/><text x="232" y="168" class="metric">Medium</text><text x="328" y="168" class="count" text-anchor="end">44%</text>
<circle cx="216" cy="205" r="7" fill="#ef4743"/><text x="232" y="210" class="metric">Hard</text><text x="328" y="210" class="count" text-anchor="end">6%</text>
<text x="328" y="326" class="link" text-anchor="end">View profile ↗</text>
</svg>
